<?xml version="1.0" standalone="no"?>
<!DOCTYPE svg PUBLIC "-//W3C//DTD SVG 20010904//EN"
 "http://www.w3.org/TR/2001/REC-SVG-20010904/DTD/svg10.dtd">
<svg version="1.0" xmlns="http://www.w3.org/2000/svg"
 width="512.000000pt" height="512.000000pt" viewBox="0 0 512.000000 512.000000"
 preserveAspectRatio="xMidYMid meet">

<g transform="translate(0.000000,512.000000) scale(0.100000,-0.100000)"
fill="#000000" stroke="none">
<path d="M2150 5101 c-166 -23 -369 -162 -462 -317 -61 -99 -100 -231 -106
-356 l-5 -108 -376 0 c-407 0 -476 -6 -526 -44 -53 -41 -68 -85 -73 -223 l-5
-123 -98 0 -99 0 0 -103 c0 -57 3 -145 6 -195 l7 -92 191 -2 191 -3 8 -1545 8
-1545 44 -94 c37 -77 58 -107 122 -171 86 -85 187 -142 282 -160 73 -14 2539
-14 2612 0 175 32 354 191 429 380 l22 55 7 1540 6 1540 191 3 192 2 6 31 c3
18 6 105 6 195 l0 164 -100 0 -100 0 0 95 c0 118 -14 187 -48 227 -53 62 -55
63 -514 66 l-418 3 0 88 c0 263 -150 509 -380 626 -139 70 -125 69 -565 71
-220 1 -425 -1 -455 -5z m822 -419 c61 -30 132 -110 152 -170 9 -26 17 -78 18
-117 l3 -70 -577 -3 -578 -2 0 68 c0 166 88 287 227 312 27 5 197 8 378 7 324
-2 331 -2 377 -25z m967 -2584 c0 -794 -4 -1478 -7 -1520 -7 -70 -11 -81 -42
-114 -72 -74 43 -68 -1325 -68 -1377 0 -1259 -6 -1327 74 -34 39 -35 43 -41
153 -4 61 -7 743 -7 1515 l0 1402 1375 0 1375 0 -1 -1442z"/>
<path d="M1590 1965 l0 -1175 190 0 190 0 0 1175 0 1175 -190 0 -190 0 0
-1175z"/>
<path d="M2370 1965 l0 -1175 195 0 195 0 0 1175 0 1175 -195 0 -195 0 0
-1175z"/>
<path d="M3160 1965 l0 -1175 190 0 190 0 0 1175 0 1175 -190 0 -190 0 0
-1175z"/>
</g>
</svg>
